<?xml version="1.0" standalone="no"?>
<!DOCTYPE svg PUBLIC "-//W3C//DTD SVG 20010904//EN"
 "http://www.w3.org/TR/2001/REC-SVG-20010904/DTD/svg10.dtd">
<svg version="1.0" xmlns="http://www.w3.org/2000/svg"
 width="256.000000pt" height="256.000000pt" viewBox="0 0 256.000000 256.000000"
 preserveAspectRatio="xMidYMid meet">
<metadata>
Created by potrace 1.11, written by Peter Selinger 2001-2013
</metadata>
<g transform="translate(0.000000,256.000000) scale(0.100000,-0.100000)"
fill="#000000" stroke="none">
<path d="M1078 2495 c-82 -23 -187 -82 -267 -150 -179 -154 -223 -235 -312
-585 -27 -105 -29 -165 -6 -187 15 -15 22 -15 94 1 43 10 91 16 107 14 28 -3
29 -5 32 -63 2 -33 6 -71 9 -85 28 -111 25 -197 -9 -320 -8 -30 -14 -55 -13
-56 1 -2 36 7 76 19 70 21 75 25 92 62 30 67 27 141 -12 280 -23 84 -24 106
-5 99 8 -3 30 -1 50 4 26 8 36 7 37 -1 0 -7 3 -23 5 -37 13 -81 10 -147 -9
-195 -21 -54 -33 -126 -23 -150 4 -13 10 -13 47 0 23 8 52 15 65 15 14 0 24 6
24 14 0 7 6 19 14 25 8 7 17 27 20 47 4 19 11 32 16 29 4 -3 7 -13 5 -23 -2
-9 -6 -32 -9 -49 l-5 -33 99 1 c55 0 104 -2 109 -5 5 -3 0 22 -11 57 -19 59
-20 117 -4 207 7 37 24 101 28 105 10 9 108 54 108 50 0 -3 -14 -35 -30 -70
-53 -112 -63 -186 -44 -300 3 -16 6 -36 6 -42 1 -9 22 -13 67 -14 77 0 122 -6
171 -19 19 -5 39 -10 44 -10 14 0 -1 80 -28 144 -18 43 -23 73 -21 115 3 55
14 133 20 139 2 2 19 0 38 -3 34 -7 36 -9 43 -58 6 -43 7 -201 2 -292 -3 -56
2 -65 47 -87 24 -12 47 -19 50 -16 8 8 18 160 18 283 1 76 -5 127 -16 164 -9
30 -17 56 -17 58 0 7 61 33 78 33 10 0 43 -13 72 -29 51 -28 56 -29 80 -14 32
19 54 67 52 111 -5 69 -111 315 -184 427 -73 113 -231 251 -363 318 -141 70
-328 101 -437 72z m-2 -963 c6 -24 12 -45 12 -47 1 -3 6 -29 11 -58 19 -92 20
-97 10 -97 -5 0 -10 9 -10 20 -2 21 -5 38 -9 43 -1 1 -3 9 -5 17 -1 8 -12 47
-24 86 -24 82 -25 87 -9 82 6 -2 17 -23 24 -46z m136 -5 c4 -6 3 -18 -2 -28
-5 -9 -6 -19 -3 -23 3 -3 2 -6 -4 -6 -5 0 -17 18 -26 40 -16 41 -16 41 6 34
12 -4 25 -11 29 -17z m-98 -222 c3 -8 1 -15 -4 -15 -6 0 -10 7 -10 15 0 8 2
15 4 15 2 0 6 -7 10 -15z"/>
<path d="M339 996 c-4 -4 -74 -15 -98 -16 -12 0 -11 -3 1 -17 9 -11 14 -31 12
-48 -2 -16 -5 -61 -8 -99 -3 -41 -10 -72 -18 -77 -19 -12 -5 -20 48 -24 27 -2
63 -6 80 -9 l32 -4 -15 29 c-8 17 -17 49 -20 72 l-6 42 47 -49 c35 -36 44 -51
34 -57 -7 -5 -11 -9 -8 -10 3 0 14 -2 25 -5 39 -7 115 -12 115 -7 0 3 -16 25
-35 49 -19 23 -35 45 -35 48 0 3 -11 22 -25 42 -14 20 -25 42 -25 48 0 6 20
24 45 41 24 16 42 31 40 34 -3 2 -34 5 -70 6 -49 1 -62 -1 -55 -10 7 -8 3 -19
-11 -36 -11 -13 -25 -31 -29 -39 -11 -19 -16 -13 -23 27 -4 22 -2 37 8 47 13
12 6 33 -6 22z"/>
<path d="M1010 988 c0 -4 4 -8 9 -8 5 0 -2 -42 -15 -92 -14 -51 -27 -104 -30
-118 -3 -14 -12 -29 -20 -33 -28 -16 -13 -23 39 -19 28 2 62 5 75 5 14 1 21 6
18 14 -3 7 -1 24 4 38 7 19 17 25 39 25 36 0 51 -31 27 -56 -23 -22 -21 -47 2
-35 9 6 41 18 71 27 46 14 52 19 38 29 -13 9 -97 183 -97 201 0 2 10 9 23 14
18 7 14 9 -23 10 -25 1 -71 3 -102 4 -32 1 -58 -1 -58 -6z m118 -88 c10 -26 8
-31 -9 -41 -12 -6 -22 -9 -25 -7 -4 5 15 78 20 78 2 0 9 -13 14 -30z"/>
<path d="M1855 991 c-3 -5 6 -21 19 -34 17 -17 24 -33 21 -49 -3 -12 -7 -57
-10 -98 -4 -61 -8 -78 -26 -92 -20 -17 -19 -18 37 -11 64 8 233 9 356 2 42 -2
80 -1 83 3 9 8 16 98 9 98 -4 0 -15 -11 -25 -24 -16 -20 -25 -23 -61 -19 -54
6 -65 16 -51 46 12 25 44 30 65 9 20 -20 23 -14 21 35 -2 67 -2 70 -12 55 -4
-8 -25 -16 -45 -19 -34 -4 -36 -3 -27 19 11 30 81 42 112 20 20 -14 21 -13 15
7 -3 11 -8 29 -11 39 -4 15 -14 18 -43 16 -105 -7 -248 -17 -257 -17 -33 0
-148 13 -155 18 -5 3 -11 1 -15 -4z m208 -33 c10 -8 19 -33 22 -62 3 -26 10
-68 14 -93 10 -52 -4 -73 -43 -66 -35 7 -40 17 -59 106 -18 84 -21 121 -9 114
4 -3 16 -1 27 4 28 11 29 11 48 -3z"/>
<path d="M647 984 c-1 -2 -24 -4 -50 -5 -43 -3 -61 -12 -38 -21 5 -1 12 -28
16 -58 4 -30 11 -77 15 -105 5 -29 4 -54 -1 -60 -16 -17 -10 -20 40 -22 45 -1
50 2 56 26 7 28 23 51 35 51 5 0 14 -17 21 -37 17 -53 23 -55 109 -38 8 2 21
4 28 4 6 1 12 5 12 11 0 5 -7 7 -15 4 -8 -4 -15 -1 -15 5 0 28 65 207 79 218
14 10 11 13 -19 14 -19 0 -57 2 -84 3 -36 2 -45 0 -35 -8 10 -8 14 -29 11 -71
-4 -93 -6 -94 -37 -27 -24 54 -30 61 -38 45 -6 -10 -13 -20 -17 -23 -3 -3 -16
-22 -29 -42 -27 -45 -33 -47 -27 -11 3 14 8 47 12 72 4 29 14 52 28 64 21 17
21 17 -17 15 -21 -1 -39 -3 -40 -4z"/>
<path d="M1419 986 c-3 -3 -27 -6 -54 -7 -28 -1 -59 -5 -70 -9 -19 -7 -19 -7
3 -14 12 -4 20 -11 18 -15 -3 -4 -6 -49 -7 -100 -2 -63 -7 -98 -17 -107 -7 -8
-12 -15 -10 -15 14 -5 88 -3 88 2 0 4 16 3 34 -1 19 -4 37 -6 39 -4 2 3 23 6
45 9 31 3 44 0 52 -13 10 -14 10 -13 6 8 -3 14 -9 49 -12 78 -7 53 -18 67 -29
33 -3 -10 -20 -26 -38 -35 l-32 -15 -12 52 c-23 100 -23 119 0 138 12 10 17
18 11 19 -6 0 -13 -2 -15 -4z"/>
<path d="M1677 984 c-1 -1 -26 -4 -56 -7 -59 -6 -72 -12 -43 -21 16 -5 18 -14
15 -54 -1 -26 -4 -73 -4 -105 -1 -40 -6 -60 -15 -64 -8 -3 -14 -8 -14 -12 0
-6 39 -6 195 3 28 1 56 -2 63 -7 9 -7 11 -4 8 14 -3 13 -8 45 -12 72 -7 52
-16 58 -32 23 -6 -13 -24 -28 -40 -34 -29 -10 -30 -9 -36 29 -3 21 -7 40 -7
41 0 2 -4 23 -9 48 -7 38 -5 47 12 62 20 17 20 17 -2 15 -11 -1 -22 -2 -23 -3z"/>
</g>
</svg>
